<svg width="839" height="612" viewBox="0 0 839 612" fill="none" xmlns="http://www.w3.org/2000/svg">
<mask id="path-1-inside-1_132_94673" fill="white">
<path fill-rule="evenodd" clip-rule="evenodd" d="M26 1C11.6406 1 0 12.6406 0 27V585.31C0 599.669 11.6406 611.31 26 611.31H812.97C827.329 611.31 838.97 599.669 838.97 585.31V27C838.97 12.6406 827.329 1 812.97 1H26ZM31 43C21.6112 43 14 50.6111 14 60V580C14 589.389 21.6112 597 31 597H806C815.389 597 823 589.389 823 580V60C823 50.6112 815.389 43 806 43H31Z"/>
</mask>
<path fill-rule="evenodd" clip-rule="evenodd" d="M26 1C11.6406 1 0 12.6406 0 27V585.31C0 599.669 11.6406 611.31 26 611.31H812.97C827.329 611.31 838.97 599.669 838.97 585.31V27C838.97 12.6406 827.329 1 812.97 1H26ZM31 43C21.6112 43 14 50.6111 14 60V580C14 589.389 21.6112 597 31 597H806C815.389 597 823 589.389 823 580V60C823 50.6112 815.389 43 806 43H31Z" fill="white"/>
<path d="M1 27C1 13.1929 12.1929 2 26 2V0C11.0883 0 -1 12.0883 -1 27H1ZM1 585.31V27H-1V585.31H1ZM26 610.31C12.1929 610.31 1 599.117 1 585.31H-1C-1 600.222 11.0883 612.31 26 612.31V610.31ZM812.97 610.31H26V612.31H812.97V610.31ZM837.97 585.31C837.97 599.117 826.777 610.31 812.97 610.31V612.31C827.882 612.31 839.97 600.222 839.97 585.31H837.97ZM837.97 27V585.31H839.97V27H837.97ZM812.97 2C826.777 2 837.97 13.1929 837.97 27H839.97C839.97 12.0883 827.882 0 812.97 0V2ZM26 2H812.97V0H26V2ZM15 60C15 51.1634 22.1634 44 31 44V42C21.0589 42 13 50.0589 13 60H15ZM15 580V60H13V580H15ZM31 596C22.1635 596 15 588.837 15 580H13C13 589.941 21.0589 598 31 598V596ZM806 596H31V598H806V596ZM822 580C822 588.837 814.837 596 806 596V598C815.941 598 824 589.941 824 580H822ZM822 60V580H824V60H822ZM806 44C814.837 44 822 51.1634 822 60H824C824 50.0589 815.941 42 806 42V44ZM31 44H806V42H31V44Z" fill="black" fill-opacity="0.1" mask="url(#path-1-inside-1_132_94673)"/>
<ellipse cx="30.5" cy="23.1041" rx="5.125" ry="5.125" fill="#D9D9D9"/>
<path d="M35.1125 23.1041C35.1125 25.6515 33.0474 27.7166 30.5 27.7166C27.9526 27.7166 25.8875 25.6515 25.8875 23.1041C25.8875 20.5567 27.9526 18.4916 30.5 18.4916C33.0474 18.4916 35.1125 20.5567 35.1125 23.1041Z" stroke="black" stroke-opacity="0.03" stroke-width="1.025"/>
<ellipse cx="48.9502" cy="23.1041" rx="5.125" ry="5.125" fill="#D9D9D9" fill-opacity="0.5"/>
<path d="M53.5627 23.1041C53.5627 25.6515 51.4976 27.7166 48.9502 27.7166C46.4028 27.7166 44.3377 25.6515 44.3377 23.1041C44.3377 20.5567 46.4028 18.4916 48.9502 18.4916C51.4976 18.4916 53.5627 20.5567 53.5627 23.1041Z" stroke="black" stroke-opacity="0.03" stroke-width="1.025"/>
<ellipse cx="67.4004" cy="23.1041" rx="5.125" ry="5.125" fill="#D9D9D9" fill-opacity="0.5"/>
<path d="M72.0129 23.1041C72.0129 25.6515 69.9478 27.7166 67.4004 27.7166C64.853 27.7166 62.7879 25.6515 62.7879 23.1041C62.7879 20.5567 64.853 18.4916 67.4004 18.4916C69.9478 18.4916 72.0129 20.5567 72.0129 23.1041Z" stroke="black" stroke-opacity="0.03" stroke-width="1.025"/>
</svg>
