<?xml version="1.0" encoding="utf-8"?>
<!-- Generator: Adobe Illustrator 27.5.0, SVG Export Plug-In . SVG Version: 6.00 Build 0)  -->
<svg version="1.1" xmlns="http://www.w3.org/2000/svg" xmlns:xlink="http://www.w3.org/1999/xlink" x="0px" y="0px" width="1920px"
	 height="1080px" viewBox="0 0 1920 1080" enable-background="new 0 0 1920 1080" xml:space="preserve">
<g id="Layer_1">
	<g id="Rute_1_">
	</g>
</g>
<g id="Graphic">
</g>
<g id="Notification">
</g>
<g id="Engine">
</g>
<g id="Cellphone">
</g>
<g id="Cellphone_-_Alert">
</g>
<g id="Cellphone_Pins">
</g>
<g id="Rute">
</g>
<g id="Guy">
</g>
<g id="Girl">
</g>
<g id="Pin_-_Girl">
	<g>
		<polyline fill="none" stroke="#F1F3F4" stroke-width="10.0748" stroke-miterlimit="10" points="1048.95,559.35 1479.92,332.9 
			1649.06,771.31 1048.95,670.53 		"/>
		
			<linearGradient id="SVGID_1_" gradientUnits="userSpaceOnUse" x1="12971.4121" y1="1135.2039" x2="12939.0771" y2="732.2516" gradientTransform="matrix(-0.9911 -0.1333 -0.1333 0.9911 13282.7822 1208.2059)">
			<stop  offset="0" style="stop-color:#FFFFFF"/>
			<stop  offset="1" style="stop-color:#E9EAED"/>
		</linearGradient>
		<path fill="url(#SVGID_1_)" d="M197.66,507.03l65.26,39.14c4.16,2.59,9.33,1.62,12.27-1.91l32.16-39.61
			c12.11,1.71,24.58,2.14,37.08,0.64l30.71,40.63c2.72,3.93,7.88,4.88,12.04,2.57l66.56-36.94c4.16-2.31,5.87-7.07,4.39-11.69
			L439.9,452.3c7.88-9.82,14.03-20.3,19.08-31.81l50.63-6.33c4.44-0.83,8.11-4.5,8.11-9.4l1.3-76.09c-0.09-4.57-3.46-8.69-7.97-9.45
			l-50.39-7.95c-2.05-5.66-4.75-11.51-7.76-16.92c-3-5.41-6.74-10.68-10.46-15.42l19.91-46.96c1.94-4.34,0.35-9.17-3.81-11.76
			l-65.26-39.14c-4.16-2.59-9.33-1.62-12.27,1.91l-32.16,39.61c-12.11-1.71-24.58-2.14-37.08-0.64l-30.71-40.63
			c-2.93-3.81-7.88-4.88-12.04-2.57l-66.56,36.94c-4.16,2.31-6.08,7.18-4.39,11.69l18.23,47.56c-7.88,9.82-14.03,20.3-19.08,31.81
			l-50.63,6.33c-4.44,0.83-8.11,4.5-8.11,9.4l-1.3,76.09c0.09,4.57,3.46,8.69,7.97,9.45l50.39,7.95c2.05,5.66,4.64,11.3,7.76,16.92
			c3.12,5.62,6.53,10.79,10.04,15.65l-19.5,46.73C191.91,499.61,193.51,504.44,197.66,507.03z M265.71,398.26
			c-19.05-34.32-6.55-77.98,27.77-97.03c34.32-19.05,77.98-6.55,97.03,27.77c19.05,34.32,6.55,77.98-27.77,97.03
			C328.42,445.07,284.76,432.58,265.71,398.26z"/>
		<g>
			<polygon fill="#F1F3F4" points="1058.79,232.22 1044.28,201.55 1029.77,232.22 999.1,246.73 1029.77,261.23 1044.28,291.9 
				1058.79,261.23 1089.46,246.73 			"/>
			<polygon fill="#F1F3F4" points="1120.65,326.33 1111.12,305.61 1101.59,326.33 1080.87,335.87 1101.59,345.4 1111.12,366.12 
				1120.65,345.4 1141.38,335.87 			"/>
		</g>
		<circle fill="#FBBC04" cx="1641.8" cy="751.52" r="141.01"/>
		<g>
			<g>
				<path fill="#FFFFFF" d="M1650.02,821.32h-16.45c-1.62,0-2.94-1.32-2.94-2.94c0-1.62,1.32-2.94,2.94-2.94h16.45
					c1.62,0,2.94,1.32,2.94,2.94C1652.96,820,1651.64,821.32,1650.02,821.32z"/>
			</g>
			<path fill="#FFFFFF" d="M1639.05,681.81c-8.42,0.52-16.21,3.54-22.65,8.3l0,0c0,0,0,0,0,0c-0.63,0.46-1.24,0.94-1.84,1.44
				c-0.02,0.01-0.03,0.03-0.05,0.04c-0.89,0.74-1.75,1.51-2.59,2.32c-0.04,0.04-0.09,0.09-0.13,0.13c-0.51,0.5-1,1.01-1.49,1.53
				c-0.04,0.04-0.08,0.09-0.12,0.13c-0.26,0.28-0.51,0.56-0.76,0.85c-0.02,0.02-0.04,0.05-0.06,0.07c-0.45,0.52-0.89,1.05-1.32,1.59
				c-0.1,0.13-0.2,0.25-0.3,0.38c-0.33,0.43-0.65,0.86-0.97,1.3c-0.12,0.16-0.23,0.32-0.35,0.49c-0.18,0.25-0.35,0.51-0.52,0.77
				c-0.14,0.21-0.28,0.43-0.42,0.65c-0.23,0.36-0.45,0.72-0.67,1.09c-0.15,0.24-0.29,0.49-0.43,0.74c-0.13,0.23-0.26,0.45-0.38,0.68
				c-0.22,0.4-0.43,0.81-0.64,1.22c-0.1,0.21-0.21,0.42-0.31,0.62c-0.17,0.34-0.33,0.69-0.49,1.04c-0.1,0.21-0.19,0.42-0.28,0.63
				c-0.18,0.41-0.35,0.82-0.51,1.24c-0.07,0.18-0.14,0.36-0.21,0.54c-0.18,0.49-0.36,0.97-0.53,1.47c-0.05,0.14-0.09,0.29-0.14,0.44
				c-0.15,0.44-0.28,0.89-0.42,1.34c-0.03,0.12-0.07,0.23-0.1,0.35c-0.15,0.53-0.29,1.07-0.42,1.61c-0.03,0.14-0.07,0.28-0.1,0.43
				c-0.13,0.56-0.25,1.11-0.35,1.68c-0.01,0.08-0.03,0.15-0.04,0.23c-0.1,0.53-0.18,1.07-0.26,1.6c-0.02,0.11-0.03,0.22-0.05,0.33
				c-0.08,0.58-0.14,1.16-0.19,1.74c-0.01,0.12-0.02,0.24-0.03,0.36c-0.05,0.61-0.09,1.21-0.12,1.83
				c-0.21,5.31,0.55,10.41,2.1,15.15c0.44,1.35,0.95,2.68,1.53,3.97c0.57,1.29,1.21,2.55,1.9,3.77c1.04,1.83,2.2,3.58,3.49,5.23
				c0.86,1.1,1.77,2.16,2.72,3.17c4.04,4.27,7.08,9.31,8.86,14.78c1.17,3.58,1.8,7.35,1.8,11.2l0,6.96h41.13v-6.95
				c0-9.77,4.04-18.96,10.74-26.06c7.25-7.7,11.69-18.07,11.69-29.48C1684.8,700.07,1664.05,680.26,1639.05,681.81z"/>
			<path fill="#FFFFFF" d="M1621.24,791.89v10.91c0,2.27,0.92,4.32,2.41,5.81c0.37,0.37,0.78,0.71,1.22,1
				c0.44,0.3,0.9,0.55,1.4,0.76c0.98,0.42,2.06,0.65,3.2,0.65l0,0h9.21h15.47c4.54,0,8.22-3.68,8.22-8.22v-10.91H1621.24z"/>
			<g>
				<path fill="#FBBC04" d="M1648.07,783l3.12-0.03c-0.17-26.56,12.27-57.71,12.39-58.02l-2.89-1.17
					C1660.55,724.08,1647.88,755.81,1648.07,783z"/>
				<path fill="#FBBC04" d="M1639.11,782.99c0.18-27.18-12.49-58.91-12.63-59.22l-2.89,1.17c0.12,0.31,12.57,31.48,12.39,58.03
					L1639.11,782.99z"/>
				<path fill="#FBBC04" d="M1645.92,735.52c0.27,0,0.52-0.05,0.78-0.16c1.4-0.67,1.37-2.72,1.34-4.71
					c-0.01-0.54-0.02-1.08,0.02-1.54c0.14-2.35,0.48-2.93,0.7-3.06c0.48-0.32,1.84,0.51,2.58,0.97c0.27,0.17,0.54,0.33,0.78,0.47
					c2.17,1.16,4.03,2.56,6.03,4.04c1.16,0.86,2.32,1.71,3.57,2.56l1.16-1.74c-1.21-0.81-2.36-1.65-3.48-2.49
					c-1.96-1.46-3.99-2.95-6.3-4.2c-0.2-0.11-0.44-0.25-0.67-0.4c-1.29-0.79-3.23-1.98-4.82-0.94c-1.42,0.92-1.55,3.34-1.63,4.63
					c-0.03,0.54-0.03,1.14-0.01,1.74c0.01,0.83,0.03,2.37-0.2,2.8c-0.06-0.08-0.46-0.25-1.21-0.88c-0.42-0.35-0.81-0.94-1.26-1.58
					c-0.66-0.99-1.36-2.01-2.4-2.55c-2.01-1.06-2.97,0.41-3.48,1.19c-0.18,0.26-0.35,0.53-0.57,0.79c-0.89,1.02-1.24,1.21-2.22,1.08
					c-4.23-0.54-10.16-3.27-13.41-5.6l-1.21,1.7c3.41,2.43,9.62,5.34,14.33,5.95c1.95,0.25,2.94-0.43,4.09-1.78
					c0.29-0.35,0.51-0.68,0.73-1c0.15-0.22,0.36-0.55,0.46-0.64c0.01,0.02,0.12,0.04,0.3,0.14c0.59,0.3,1.13,1.1,1.66,1.89
					c0.48,0.71,1.01,1.46,1.62,1.99C1643.93,734.8,1644.93,735.53,1645.92,735.52z"/>
			</g>
		</g>
		<g>
			<circle fill="#00AD41" cx="1480.72" cy="316.72" r="141.01"/>
			<g>
				<circle fill="#FFFFFF" cx="1480.72" cy="316.72" r="54.4"/>
				<g>
					<path fill="none" stroke="#00AD41" stroke-width="4.3178" stroke-miterlimit="10" d="M1467.94,328.38
						c0,6.44,5.72,11.66,12.78,11.66s12.78-5.22,12.78-11.66c0-6.44-5.72-11.66-12.78-11.66s-12.78-5.22-12.78-11.66
						c0-6.44,5.72-11.66,12.78-11.66s12.78,5.22,12.78,11.66"/>
					
						<line fill="none" stroke="#00AD41" stroke-width="4.3178" stroke-miterlimit="10" x1="1480.72" y1="283.84" x2="1480.72" y2="349.61"/>
				</g>
				<g>
					<path fill="none" stroke="#FFFFFF" stroke-width="5.757" stroke-miterlimit="10" d="M1382.96,350.92l13.32-22.48
						c6.94,39.98,41.78,70.39,83.75,70.39c41.97,0,76.81-30.41,83.75-70.39"/>
					<path fill="none" stroke="#FFFFFF" stroke-width="5.757" stroke-miterlimit="10" d="M1578.48,282.52L1565.16,305
						c-6.94-39.98-41.78-70.39-83.75-70.39c-41.97,0-76.81,30.41-83.75,70.39"/>
				</g>
			</g>
		</g>
		<g>
			<g>
				
					<linearGradient id="SVGID_00000080208469250770233090000002862290291701871491_" gradientUnits="userSpaceOnUse" x1="156.1861" y1="903.0397" x2="352.1143" y2="903.0397">
					<stop  offset="0" style="stop-color:#202124;stop-opacity:0"/>
					<stop  offset="0.5267" style="stop-color:#202124"/>
				</linearGradient>
				
					<rect x="156.19" y="893.99" opacity="0.1" fill="url(#SVGID_00000080208469250770233090000002862290291701871491_)" width="195.93" height="18.1"/>
				
					<linearGradient id="SVGID_00000007427675814283490690000008965678721857921712_" gradientUnits="userSpaceOnUse" x1="19130.709" y1="618.4867" x2="19148.457" y2="618.4867" gradientTransform="matrix(-1 0 0 1 20168.2812 0)">
					<stop  offset="0" style="stop-color:#989EA4"/>
					<stop  offset="1" style="stop-color:#BBBFC3"/>
				</linearGradient>
				<path fill="url(#SVGID_00000007427675814283490690000008965678721857921712_)" d="M1037.57,867.69H302.89V405.92
					c0-20.15,16.49-36.64,36.64-36.64h661.41c20.15,0,36.64,16.49,36.64,36.64V867.69z"/>
				<path fill="#3C4043" d="M313.54,867.69h747.04v-461.9c0-20.17-16.5-36.67-36.67-36.67h-673.7c-20.17,0-36.67,16.5-36.67,36.67
					V867.69z"/>
				
					<rect x="337.28" y="392.98" transform="matrix(-1 -4.489798e-11 4.489798e-11 -1 1374.1199 1244.8236)" fill="#FFFFFF" width="699.55" height="458.86"/>
				
					<linearGradient id="SVGID_00000017488033153179388970000005784227816047581627_" gradientUnits="userSpaceOnUse" x1="19452" y1="908.4426" x2="19452" y2="869.0319" gradientTransform="matrix(-1 0 0 1 20168.2812 0)">
					<stop  offset="0" style="stop-color:#989EA4"/>
					<stop  offset="1" style="stop-color:#BBBFC3"/>
				</linearGradient>
				<path fill="url(#SVGID_00000017488033153179388970000005784227816047581627_)" d="M337.44,912.09h757.69
					c19.08,0,34.55-15.47,34.55-34.55v-9.85H302.89v9.85C302.89,896.62,318.35,912.09,337.44,912.09z"/>
				
					<linearGradient id="SVGID_00000170960630999703831650000016902644262278249363_" gradientUnits="userSpaceOnUse" x1="19250.8262" y1="908.4426" x2="19250.8262" y2="869.0319" gradientTransform="matrix(-1 0 0 1 20168.2812 0)">
					<stop  offset="0" style="stop-color:#7F8488"/>
					<stop  offset="1" style="stop-color:#989EA4"/>
				</linearGradient>
				<path fill="url(#SVGID_00000170960630999703831650000016902644262278249363_)" d="M538.61,912.09h757.69
					c19.08,0,34.55-15.47,34.55-34.55v-9.85H504.06v9.85C504.06,896.62,519.53,912.09,538.61,912.09z"/>
			</g>
			<path fill="#7F8488" d="M849,882.16h136.91c6.51,0,11.83-5.32,11.83-11.83v-2.63H837.17v2.63
				C837.17,876.83,842.49,882.16,849,882.16z"/>
		</g>
		<g>
			<g id="right_00000049933678953455551410000018265096082002146947_">
				<path fill="#F9AB00" d="M718.53,500.89v239.41c0,26.79,18.48,41.72,38.09,41.72c18.14,0,38.09-12.7,38.09-41.72V502.7
					c0-24.56-18.14-39.9-38.09-39.9C736.67,462.8,718.53,479.72,718.53,500.89z"/>
			</g>
			<g id="middle_00000173864179009856134490000007958869002171717567_">
				<path fill="#E37400" d="M618.77,622.41v117.89c0,26.79,18.48,41.72,38.09,41.72c18.14,0,38.09-12.7,38.09-41.72V624.23
					c0-24.56-18.14-39.9-38.09-39.9S618.77,601.25,618.77,622.41z"/>
			</g>
			<g id="left_00000084522150920905333390000001270962406549070723_">
				<circle fill="#E37400" cx="557.11" cy="743.93" r="38.09"/>
			</g>
		</g>
	</g>
</g>
<g id="live_area" display="none">
	<g display="inline">
		<path d="M2007,103.5v873H-87v-873H2007 M2008,102.5H-88v875h2096V102.5L2008,102.5z"/>
	</g>
</g>
</svg>
